<svg xmlns="http://www.w3.org/2000/svg" width="174" height="174.199" viewBox="0 0 174 174.199">
  <g id="logo-website" transform="translate(-242.989 -187.662)">
    <path id="Path_213" data-name="Path 213" d="M262.48,229.385c3.433,3.227,3.038,11.769,2.018,14.393-1.439,2.461-5.892,3.459-10.531,2.647-4.478-1-9.327,3.249-10.578,9.749-1.416,6.106,1.043,11.956,5.5,12.977,4.849,1.021,8.305,8.938,8.513,11.585.4,2.623-2.829,6.082-7.307,7.289-4.64,1.649-6.495,7.916-4.64,14,1.81,6.107,7.261,9.961,11.739,8.544,4.245-1.625,9.139-.812,10.346,1.625,1.415,2.02,3.015,10.54-.209,14.184-2.83,3.46-1.6,9.727,3.063,14,4.639,4.271,11.343,5.084,14.382,1.625,3.039-3.436,11.553-2.624,14.2-1.625,2.436,1.021,3.665,5.71,2.83,10.145-1.2,4.875,3.039,9.749,9.534,10.957,6.1,1.415,11.993-1.208,12.991-5.874,1.231-4.457,8.931-8.311,11.551-8.52,2.646-.208,6.1,3.228,7.519,7.522,1.624,4.458,7.7,6.662,13.78,4.458,6.076-1.835,9.928-7.127,8.3-11.376-1.415-4.666,3.666-11.793,5.893-13.4,2.019-1.625,6.7-.208,10.136,2.833,3.434,3.25,9.722,2.042,14.175-2.833,4.083-4.874,4.894-11.166,1.46-14.392-3.479-3.274-2.666-11.77-1.46-14.232,1.044-2.413,5.5-3.645,9.952-2.623,4.872,1.021,9.744-3.435,10.973-9.542,1.415-6.5-1.229-12.349-5.915-13.37-4.432-.836-8.1-8.729-8.514-11.376-.185-2.856,3.247-5.873,7.516-7.522,4.662-1.416,6.7-7.521,4.662-13.581-2.04-6.314-7.284-9.935-11.551-8.519-4.456,1.207-11.763-3.645-13.386-5.711-1.6-2.415-.186-6.871,3.039-10.331,3.224-3.435,1.81-9.959-3.039-14.207-4.685-4.272-11.135-5.06-14.4-1.648-3.041,3.483-11.763,3.087-13.966,1.858-2.459-1.045-3.873-5.9-2.876-10.378,1.229-4.434-3.433-9.332-9.512-10.748-6.263-1.207-12.156,1.207-13.384,5.9-.814,4.668-8.723,8.336-11.344,8.521-2.668,0-5.894-3.018-7.517-7.707-1.438-4.458-7.493-6.292-13.594-4.458s-9.929,7.081-8.514,11.77c1.206,4.458-3.432,11.353-5.892,12.978-2.226,1.649-6.681.394-10.137-2.833-3.434-3.04-9.929-1.625-14.174,2.833-4.269,4.874-5.1,11.584-1.624,14.416Z" fill="#666" fill-rule="evenodd"/>
    <path id="Path_214" data-name="Path 214" d="M378.284,259.007a51.041,51.041,0,0,0-64.119-32.848c-26.562,8.472-41.153,37.537-32.617,64.119a50.833,50.833,0,1,0,96.736-31.271ZM362.9,300.259l-5.988,5.99a1.789,1.789,0,0,1-2.55,0l-17.489-17.5a1.792,1.792,0,0,1,0-2.554l1.552-1.555c-2.483-2.508-4.686-4.689-6.937-6.918l-7.632,7.637-3.178,3.2a12.122,12.122,0,0,1-14.522,16.227l-1.206-.326,8.258-8.264-6.867-6.872-8.257,8.265-.326-1.206a12.121,12.121,0,0,1,16.216-14.533l3.178-3.181,7.633-7.615c-3.968-3.923-8.677-8.636-15.311-15.275h-.047l-5.637-3.3a1.227,1.227,0,0,1-.255-.232l-3.85-5.572a.743.743,0,0,1,.092-.975l2.483-2.485a.773.773,0,0,1,.974-.092l5.567,3.854a.72.72,0,0,1,.208.255l3.295,5.641a.071.071,0,0,1,.023.046c6.867,6.872,11.484,11.469,15.31,15.253l7.634-7.615,3.177-3.2a12.109,12.109,0,0,1,14.521-16.227l1.185.324-8.237,8.265,6.868,6.871,8.234-8.264.349,1.208a12.141,12.141,0,0,1-16.24,14.531l-3.178,3.18-7.586,7.616c2.135,2.135,4.339,4.294,6.914,6.895l1.578-1.557a1.793,1.793,0,0,1,2.551,0L362.9,297.706a1.8,1.8,0,0,1,0,2.553Z" fill="#fff" fill-rule="evenodd"/>
  </g>
</svg>
